# xmcd
#
# Track frame offsets:
#	150
#	11285
#	25998
#	41625
#	51604
#	71231
#	86965
#	104023
#	117223
#	128719
#	146899
#
# Disc length: 2191 seconds
#
# Revision: 1
# Processed by: cddbd v1.5.2PL0 Copyright (c) Steve Scherf et al.
# Submitted via: audiograbber 1.83.01
#
DISCID=a6088d0b
DTITLE=Michael Monroe - Horns and halos
DYEAR=2013
DGENRE=Rock
TTITLE0=TNT Diet
TTITLE1=Ballad of the Lower East Side
TTITLE2=Eighteen Angels
TTITLE3=Saturday Night Special
TTITLE4=Stained Glass Heart
TTITLE5=Horns and halos
TTITLE6=Child of the revolution
TTITLE7=Soul surrender
TTITLE8=Half the way
TTITLE9=Ritual
TTITLE10=Hands are tied
EXTD=
EXTT0=
EXTT1=
EXTT2=
EXTT3=
EXTT4=
EXTT5=
EXTT6=
EXTT7=
EXTT8=
EXTT9=
EXTT10=
PLAYORDER=
